<svg width="1536" height="1500" viewBox="0 10 200 200"
  xmlns="http://www.w3.org/2000/svg"
  xmlns:xlink="http://www.w3.org/1999/xlink"
  xmlns:dc="http://purl.org/dc/elements/1.1/"
  xmlns:rdf="http://www.w3.org/1999/02/22-rdf-syntax-ns#">
  <defs>
    <clipPath id="shield_799655511">
      <path d="m 25,25 h 150 v 139.15 c 0,41.745 -66,18.15 -75,36.3 -9,-18.15 -75,5.445 -75,-36.3 v 0 z"/>
    </clipPath>
    <clipPath id="division_799655511">
      <rect x="100" y="0" width="100" height="200"/>
    </clipPath>
    <radialGradient id="backlight" cx="100%" cy="100%" r="150%">
      <stop stop-color="#fff" stop-opacity=".3" offset="0"/>
      <stop stop-color="#fff" stop-opacity=".15" offset=".25"/>
      <stop stop-color="#000" stop-opacity="0" offset="1"/>
    </radialGradient>
    <g id="crescent" stroke-width=".5" author="Azgaar" license="https://creativecommons.org/publicdomain/zero/1.0">
      <path d="M84 65c-32 15-24 68 16 68s48-53 16-68c18 20 2 41-16 41S67 85 84 65z"/>
      <path fill="none" d="M84 65c-26 15-14 56 16 56s42-41 16-56"/>
    </g>
  </defs>
  <g clip-path="url(#shield_799655511)">
    <rect class="field" x="0" y="0" width="200" height="200" fill="#eeeeee"/>
    <g class="charge" i="0" charge="crescent" fill="#333333" stroke="#000">
      <use xlink:href="#crescent"
        xmlns:xlink="http://www.w3.org/1999/xlink" transform="translate(-70 -70) scale(1.7)"/>
    </g>
    <g class="division" clip-path="url(#division_799655511)">
      <rect x="0" y="0" width="200" height="200" fill="#333333"/>
      <g class="charge" i="0" charge="crescent" fill="#eeeeee" stroke="#000">
        <use xlink:href="#crescent"
          xmlns:xlink="http://www.w3.org/1999/xlink" transform="translate(-70 -70) scale(1.7)"/>
      </g>
    </g>
  </g>
  <path class="grad" d="m 25,25 h 150 v 139.15 c 0,41.745 -66,18.15 -75,36.3 -9,-18.15 -75,5.445 -75,-36.3 v 0 z" fill="url(#backlight)" stroke="#333333" stroke-width="1" style="pointer-events: none;"/>
</svg>