<svg xmlns="http://www.w3.org/2000/svg" xmlns:xlink="http://www.w3.org/1999/xlink" xmlns:dc="http://purl.org/dc/elements/1.1/" xmlns:rdf="http://www.w3.org/1999/02/22-rdf-syntax-ns#" width="1536" height="1500" viewBox="0 0 200 200">
  <defs>
    <clipPath id="shield_550171738">
      <path d="m 32.3,99.5 a 67.7,93.7 0 1 1 0,1.3 z"/>
    </clipPath>
    <radialGradient id="spotlight" cx="35%" cy="35%" r="100%">
      <stop stop-color="#fff" stop-opacity=".3" offset="0"/>
      <stop stop-color="#fff" stop-opacity=".15" offset=".2"/>
      <stop stop-color="#000" stop-opacity="0" offset=".7"/>
    </radialGradient>
    <g id="crossTriquetra" stroke-width=".5" author="Azgaar" license="https://creativecommons.org/publicdomain/zero/1.0">
      <path d="M75.86 128.35c-4.32 0-8.7-.75-12.91-2.29A37.85 37.85 0 0187 97.16h0l.02-.02A37.33 37.33 0 0199.93 62a37.5 37.5 0 0112.92 35.14 37.56 37.56 0 0124.05 28.91 37.61 37.61 0 01-37-6.45h-.02a37.73 37.73 0 01-24.05 8.74zm.33-6.26a31.32 31.32 0 0019.3-6.92 37.77 37.77 0 01-6.85-11.86 31.44 31.44 0 00-18.04 18.31c1.86.32 3.72.47 5.6.45zm47.87 0c1.76 0 3.54-.15 5.3-.45a31.37 31.37 0 00-18.04-18.31 37.84 37.84 0 01-6.85 11.86 31.4 31.4 0 0019.57 6.92zM100 110.78h.01a32.1 32.1 0 005.28-9.12 31.51 31.51 0 00-10.52 0 31.46 31.46 0 005.24 9.1zm-6.83-15.2a39.5 39.5 0 0113.69 0A31.26 31.26 0 00100 70.84a31.34 31.34 0 00-6.84 24.74z"/>
      <path fill="none" d="M90.36 107.31a37.23 37.23 0 01-3.6-12.37m6.1-1.9a31.22 31.22 0 003.42 12.08"/>
      <path fill="none" d="M102.38 95.05a37.23 37.23 0 0115.66 4.55m-4.86 4.56a31.22 31.22 0 00-12.35-2.91"/>
      <path fill="none" d="M92.21 117.48a31 31 0 009.64-9.27m5.3 3.35a37.46 37.46 0 01-13.32 12.22"/>
    </g>
  </defs>
  <g clip-path="url(#shield_550171738)">
    <rect class="field" x="0" y="0" width="200" height="200" fill="#29417a"/>
    <g class="ordinary" i="0" fill="#333333" stroke="none" stroke-width="1">
      <path d="m 200,115 v -15 c -8.9,3.5 -16,3.1 -25,0 -8.9,-3.5 -16,-3.1 -25,0 -8.9,3.5 -16,3.2 -25,0 -8.9,-3.5 -16,-3.2 -25,0 -8.9,3.5 -16,3.1 -25,0 -8.9,-3.5 -16,-3.1 -25,0 -8.9,3.5 -16,3.2 -25,0 -8.9,-3.5 -16,-3.2 -25,0 v 15 z" transform="translate(0 -25)"/>
      <path d="m 200,115 v -15 c -8.9,3.5 -16,3.1 -25,0 -8.9,-3.5 -16,-3.1 -25,0 -8.9,3.5 -16,3.2 -25,0 -8.9,-3.5 -16,-3.2 -25,0 -8.9,3.5 -16,3.1 -25,0 -8.9,-3.5 -16,-3.1 -25,0 -8.9,3.5 -16,3.2 -25,0 -8.9,-3.5 -16,-3.2 -25,0 v 15 z" transform="translate(0 25) rotate(180 100 100)"/>
      <rect x="0" y="88" width="200" height="24" stroke="none"/>
    </g>
    <g class="ordinary" i="1">
      <path d="m 32.3,99.5 a 67.7,93.7 0 1 1 0,1.3 z" fill="none" stroke="#333333" stroke-width="16.7%"/>
    </g>
    <g class="charge" i="0" charge="crossTriquetra" fill="#333333" stroke="#000">
      <use xlink:href="#crossTriquetra" transform="translate(52 2) scale(0.48)"/>
      <use xlink:href="#crossTriquetra" transform="translate(52 102) scale(0.48)"/>
    </g>
    <g class="charge" i="1" charge="crossTriquetra" fill="#29417a" stroke="#000">
      <use xlink:href="#crossTriquetra" transform="translate(52 52) scale(0.48)"/>
    </g>
  </g>
  <path class="grad" d="m 32.3,99.5 a 67.7,93.7 0 1 1 0,1.3 z" fill="url(#spotlight)" stroke="#333333" stroke-width="1" style="pointer-events: none;"/>
</svg>