<svg xmlns="http://www.w3.org/2000/svg" xmlns:xlink="http://www.w3.org/1999/xlink" xmlns:dc="http://purl.org/dc/elements/1.1/" xmlns:rdf="http://www.w3.org/1999/02/22-rdf-syntax-ns#" width="1536" height="1500
" viewBox="0 10 200 200">
  <defs>
    <clipPath id="shield_895123640">
      <path d="m 25,25 v 125 l 75,50 75,-50 V 25 Z"/>
    </clipPath>
    <linearGradient id="luster" x1="0%" y1="100%" x2="95%" y2="10%">
      <stop stop-color="#000" stop-opacity=".3" offset="0"/>
      <stop stop-color="#ccc" stop-opacity="0" offset=".8"/>
      <stop stop-color="#fff" stop-opacity=".2" offset="1"/>
    </linearGradient>
    <g id="castle" stroke-width=".4" source="http://wappenwiki.org/images/8/82/Alfonso_VIII_of_Castile.svg" license="https://creativecommons.org/licenses/by-nc-sa/3.0">
      <path d="M109.3 63.4H90.8l-.2 1.9 1.4 1.9h16l1.6-1.9zM92 67.2h16V102H92zM90.8 60h3.8v3.4h-3.8zm14.7 0h3.8v3.4h-3.8zM98 60h4.2v3.4H98zm-5.8 13h15.7m-15.7 5.6h15.7m-15.7 5.6h15.7m-15.7 5.7h15.7M92.2 67.2h15.7M92 95.6h16m-8 5.7v-5.7m0-5.7v-5.7m0-5.7v-5.7m3.9 22.9V90m-7.7 5.7V90m7.7-5.8v-5.7m-7.7 5.7v-5.7m7.7-5.7v-5.6m-7.7 5.6v-5.6m13.4-1.9h-19"/>
      <path fill="#FFE066" d="M98 72.7c0-1.2 1-2.4 2-2.4s2 1.2 2 2.4V87h-4V72.7z"/>
      <path d="M115.6 66.6h3.1v3.5h-3.1zm5.4 0h3.6v3.5H121zm5.9 0h3.1v3.5h-3z"/>
      <path d="M130 70h-14.4l-.2 1.9 1.6 2h11.6l1.6-2zm-13 3.9h11.5v26.7h-11.4zm0 5.3h11.6M117 84.6h11.6M117 90h11.6M117 95.5h11.6m-5.8-5.5v-5.4m0-5.3V74m3.8 21.6V90m-7.6 5.6V90m7.6-5.4v-5.4m-7.6 5.4v-5.4m11.2-7.3h-14.8"/>
      <path fill="#FFE066" d="M120.9 79c0-1.3.8-2.5 2-2.5 1 0 1.8 1.2 1.8 2.4v9.2h-3.8z"/>
      <path d="M69.9 66.7H73v3.5h-3.1zm5.4 0h3.6v3.5h-3.6zm5.9 0h3.1v3.5h-3z"/>
      <path d="M84.3 70.1H69.9l-.2 1.9 1.6 2h11.6l1.6-2zm-13 3.9h11.5v26.7H71.4zm0 5.3h11.6m-11.6 5.4h11.6m-11.6 5.4h11.6m-11.6 5.5h11.6m-5.8-5.5v-5.4m0-5.3v-5.3m3.8 21.6v-5.6m-7.6 5.6v-5.6m7.6-5.4v-5.4m-7.6 5.4v-5.4M84.5 72H69.7"/>
      <path fill="#FFE066" d="M75.2 79.1c0-1.3.8-2.5 2-2.5 1 0 1.8 1.2 1.8 2.4v9.2h-3.8z"/>
      <path d="M70.3 99h59.4v34.5H70.3z"/>
      <path d="M126.6 135.4H73.4L69 133l-1.2 3 4.4 3.8h55.6l4.4-3.7-1.2-3.1zm3.1-4.1l-3.5 2.1H73.8l-3.5-2L69 133l4.4 2.4h53.2l4.4-2.4zm-20.4-20.5h16.9m-52.4 16.8H92m15.8.2h18.5M73.8 122H92m15.8.2l18.4.1m-3.4 5.6v-5.7m0-5.7v-5.7m-7.7 17.1v-5.7m0-5.7v-5.7m3.9 22.6V128m0-5.8v-5.7m0-5.7v-5.6m-7.7 5.8v-6m0 28.4V128m0-5.9v-5.7m-41-.1H92m15.8.2h22m-.1 9.6l-3.5 1.8m3.5-6.5l-3.5.9m0-17.3l3.5 1.8m-3.5 4l3.5.8m-59.4 14.3l3.5 1.7m-3.5-6.4l3.5.8m.1-17l-3.6 1.8m3.6 4l-3.6.8m52.5-6.4v-5.8m-7.7 5.8v-5.8m-22.5 0v5.8M77.2 122v5.7M85 122v5.7m-4 .1v5.5m0-17v5.7m0-16.8v5.6m7.7-5.7v5.9m0 16.8v5.4m0-17v5.7M77.2 99.4v5.8m7.8-5.8v5.8m-11.2-4.9v33.1m52.4-33.1v33.1m-26.4-28.2v-5.8m7.7 5.8v-5.8m-33.6 11.4h16.9M73.9 105h52.3"/>
      <path fill="none" d="M126.2 133.4l.4 2m1.2 4.4l-1.2-4.4m-52.8-2l-.4 2m-1.2 4.4l1.2-4.4"/>
      <path d="M107.6 103.7l2.6 1.5v3.2l-2.6-1.5zM92.4 107l-2.6 1.4v-3.2l2.6-1.5zm2.6-3.4h3.6v3.5H95zm6.4 0h3.6v3.5h-3.6zm-10.4 7h17.8v29.2H91z"/>
      <path d="M92.6 109h14.8l2.8 1.5v-2l-2.6-1.6H92.4l-2.6 1.5v2.1z"/>
      <path d="M93.6 127.6h2.1v4.1h-2.1zm2.1 8.1l1.3 4.1h-3.4v0-4zm-.2-19.7a6 6 0 012.5-1.4l.7 2.7-1.7.7-1.9-1.5zm8.8 0a6 6 0 00-2.5-1.4l-.7 2.7 1.6.7 2-1.5zm-12.1 7.7h3.5v3.9h-3.5zm0 8h3.5v4h-3.5zm13.7-16.1l-3.2 2.4.6 1.7h4.3c-.2-1.5-.8-3-1.7-4.1zm-1.9 8.1h3.6v3.9h-3.5zm0 8h3.6v4h-3.5zm-6.4-18.5l1.1 4.1h2.4l1.1-4.1c-.7-.2-1.5-.4-2.3-.4-.8 0-1.6.2-2.3.4zm-3.6 2.4l3 2.4-.5 1.7h-4.3c.2-1.5.8-3 1.7-4.1zm12.2 8.1v-4h-2.9c.1 4.5-1.3 4 2.9 4zm-10.5 0h-2.1v-4h2.9zm8.4 3.9h2.1v4l-2.2.1zm0 8.1l-1.4 4.1h3.5v0-4zm-13-23.7l2-1h13.7l2 1 1.4-1.5-2.8-1.5H92.6l-2.8 1.5z"/>
      <path fill="#0D6793" d="M95.2 120.6c0-3 2-4.8 4.7-4.8s4.8 1.9 4.8 5.3v18.7h-9.5v-19.2z"/>
      <path d="M70.3 102.4l3.5-2.1h52.4l3.5 2 1.3-1.6-4-2.4H73l-4 2.4zm57.5-11.2l3.7 2.5v3.7l-3.7-2.5zm-55.6 0l-3.7 2.5v3.7l3.7-2.5zm46.2 0h5V95h-5zm-41.8 0h5V95h-5zm25.1 0h5V95h-5zm8.3 0h5V95h-5zm-25 0h5V95h-5zm8.4 0h4.9V95h-5z"/>
      <path d="M127 98.3H73l-4 2.4-.5-3.3 3.7-2.5h55.6l3.7 2.5-.5 3.3z"/>
      <path fill="none" d="M73 98.3l.8 2m52.4 0l.9-2"/>
      <path fill="#0d6793" d="M113.2 110.1c0-1.2.9-2.4 2-2.4 1 0 1.8 1.2 1.8 2.4v15.5h-3.8V110v0zm7.4-.1c0-1.2.9-2.3 2-2.3 1 0 2 1.2 2 2.4v15.5h-4zm-45.3.1c0-1.2 1-2.4 2-2.4s2 1.2 2 2.4v15.5h-4V110v0zm7.5 0c0-1.2.9-2.4 2-2.4 1 0 1.9 1.2 1.9 2.4v15.5h-3.9z"/>
    </g>
    <g stroke="none" stroke-dasharray="none" stroke-opacity="1" fill="none" fill-opacity="1" transform="matrix(0.4 0 0 0.4 15 20)" id="livreOuvert" license="Unknown">
      <title>Book, Open (2)</title>
      <g id="Book,_Open_(2): Layer 2" clip-path="url(#artboard_clip_path)">
        <title>Layer 2</title>
        <g id="Group_3">
          <g id="Graphic_25">
            <path d="M 242.5561 85.78715 C 231.54962 88.84672 221.85812 95.00979 215.0393 103.27671 L 211.01465 108.3407 L 204.1045 102.23013 C 193.14795 92.6261 180.07858 86.40802 167.4329 85.33158 C 154.10883 83.90102 145.51553 85.97586 124.30131 95.36063 C 115.84924 99.14936 104.81889 103.57764 99.83042 105.03084 C 91.91551 107.45981 90.5438 107.60701 85.9662 105.13113 C 81.5567 102.82932 80.70125 102.81439 80.6684 104.69637 C 80.64451 106.06508 77.49621 109.94639 73.67252 113.30247 C 67.75991 118.6758 66.70053 120.53986 66.59302 126.69908 C 66.47356 133.54266 66.12242 134.04996 60.97182 134.9869 C 57.88027 135.6175 55.14881 135.22754 54.48237 134.18906 C 53.317594 132.28617 38.334264 137.67231 36.40151 140.54798 C 36.0444 141.39745 35.927932 148.06994 36.48686 155.26764 L 37.283448 168.45945 L 43.46357 167.36933 C 52.047907 165.80776 55.67961 163.6463 55.74531 159.88234 C 55.805035 156.46055 60.48418 153.1194 65.10359 153.20003 C 67.49884 153.24184 67.76636 157.52504 67.261666 186.43916 L 66.68231 219.6305 L 62.04796 220.40532 C 59.30157 220.8708 56.74419 220.31274 55.570455 218.92312 C 54.23459 217.01725 52.52071 217.15847 46.14859 219.44323 L 38.3988 222.21736 L 38.594645 230.60672 C 38.682116 235.4002 38.74868 241.39133 38.703886 243.95767 C 38.794343 248.58007 38.962446 248.75414 47.525877 248.3902 C 54.888695 248.17643 56.61452 247.35085 57.86889 244.12105 C 58.76316 241.91182 60.84311 240.40785 62.89618 240.4437 C 66.31797 240.50342 66.47413 241.36185 65.94679 251.96342 C 65.66222 258.46183 65.52186 266.50304 65.633224 269.9278 L 65.69083 276.4322 L 76.31629 275.5908 C 82.31338 275.18207 88.31047 274.77332 89.67919 274.7972 C 91.0479 274.8211 101.49332 274.49 112.80015 273.83166 C 182.52613 269.74334 191.94202 269.56542 196.00038 272.37452 C 201.9228 276.243 215.78703 276.14273 219.96485 272.10826 C 223.79451 268.41 236.4641 268.1177 275.4247 271.53604 C 288.58365 272.62143 308.5802 274.16847 319.86315 274.87884 C 331.1461 275.5892 342.42307 276.64175 344.98045 277.19982 L 349.58493 278.1359 L 350.39086 261.3781 L 351.1968 244.6203 L 361.4532 245.31274 C 369.9987 245.97533 372.574 245.50685 376.56283 242.49593 C 384.8886 236.13788 380.98254 224.6032 371.0235 226.48308 C 368.4482 226.95155 362.80526 226.6819 358.87916 226.09995 L 351.54023 224.945 L 352.6418 191.24935 C 353.13543 172.77467 353.92046 157.2145 354.4397 156.88128 C 354.78785 156.54507 358.88206 157.3011 363.65165 158.58234 C 376.25553 162.05404 380.91974 159.56833 381.09295 149.64514 L 381.22435 142.1172 L 370.46364 140.90253 C 354.4081 139.082 353.9008 138.73086 354.083 128.29441 C 354.21737 120.59538 353.56287 118.87255 350.0118 116.41458 C 347.8145 114.83595 344.62952 111.01524 343.14347 107.90876 C 339.5079 100.48621 339.679 100.4892 335.50716 104.18149 C 329.42645 109.38074 320.7218 108.03081 303.93625 99.0096 C 277.149 84.50842 260.43898 80.96505 242.5561 85.78715 Z M 48.28818 145.88971 L 48.28818 145.88971 C 47.756994 146.90729 45.86008 147.72988 44.320273 147.703 C 41.75692 147.48712 41.759905 147.31603 44.70725 145.14264 C 48.34791 142.46792 50.22093 143.01404 48.28818 145.88971 Z M 48.973404 155.65674 L 48.973404 155.65674 C 48.94951 157.02545 47.39179 158.02511 45.509806 157.99226 C 43.62782 157.95941 42.105936 156.906 42.12684 155.70837 C 42.147745 154.51075 43.70547 153.51109 45.59044 153.37285 C 47.47541 153.2346 49.00028 154.11693 48.973404 155.65674 Z M 50.417733 229.78624 L 50.417733 229.78624 C 48.659057 232.4938 44.21969 231.9029 44.267473 229.16546 C 44.31824 226.25694 47.940983 224.60876 50.132296 226.52957 C 50.80172 227.39696 50.94892 228.76866 50.417733 229.78624 Z M 50.93187 239.55028 L 50.93187 239.55028 C 50.90499 241.0901 49.69243 241.92463 47.98751 241.5526 C 43.725207 240.62248 43.280625 236.67847 47.38677 236.75014 C 49.439845 236.78598 50.96173 237.8394 50.93187 239.55028 Z" fill="black"/>
          </g>
          <g id="Graphic_24">
            <path d="M 285.401 92.18268 C 291.0111 94.33431 298.47632 98.05859 301.8593 100.34248 C 314.38253 108.43358 324.78016 110.83991 335.60956 108.11953 C 337.8427 107.64509 338.10125 112.44157 337.54578 144.2642 C 335.88747 229.46375 334.90448 246.56074 332.11628 249.42148 C 327.41623 253.96026 315.98012 252.22037 297.12358 244.18986 C 267.39198 231.69098 245.8168 232.34124 224.52492 246.17434 C 219.84877 249.3444 214.47033 253.52906 212.8947 255.55526 C 209.92346 259.09737 209.78223 257.3835 210.46611 218.204 C 210.86032 195.6202 210.91446 163.10425 210.52874 145.98336 C 210.1959 116.02778 210.2198 114.65907 214.0853 108.90773 C 219.54138 100.27474 231.85298 91.07686 241.31068 88.50368 C 252.65932 85.45008 272.6529 87.1682 285.401 92.18268 Z" fill="#f5f5d7"/>
          </g>
          <g id="Graphic_23">
            <path d="M 188.31563 94.93773 C 195.44166 98.48495 202.53783 103.74306 204.87932 106.86448 L 208.8899 112.41101 L 207.62667 184.78184 L 206.36343 257.15267 L 201.49442 251.7623 C 195.95 245.8467 190.18672 242.66555 175.22044 237.27007 C 157.53166 230.97136 145.01525 232.29316 122.23136 243.36195 C 108.42177 250.1377 96.91398 252.50396 89.4189 250.49057 L 84.98849 249.3864 L 86.11734 184.71459 C 86.90661 149.30206 86.94582 117.64156 86.31522 114.55 C 85.38126 109.22831 85.38424 109.05722 91.54346 109.16473 C 97.87377 109.27523 107.86266 105.68447 130.80271 95.47411 C 155.1264 84.4322 167.96408 84.314 188.31563 94.93773 Z" fill="#f5f5d7"/>
          </g>
          <g id="Graphic_22">
            <path d="M 344.6484 188.37155 C 343.80836 226.6926 342.7426 258.33518 342.39446 258.6714 C 342.0463 259.0076 341.04366 257.62096 339.8789 255.71807 C 337.8945 251.74718 338.04594 233.26654 339.918 155.4298 C 340.959 115.40085 341.37285 111.30068 343.5373 114.76129 C 345.7047 118.05081 345.85277 129.1776 344.6484 188.37155 Z" fill="#f5f5d7"/>
          </g>
          <g id="Graphic_21">
            <path d="M 84.23786 145.31922 C 84.0924 163.45769 83.20968 194.4189 82.35 214.25632 C 80.96297 244.6953 80.17111 250.84258 77.71314 254.39364 C 74.73593 258.27793 74.61263 255.53752 75.80718 187.10174 C 76.73893 133.72184 77.5807 114.91097 79.1653 112.3715 C 83.559 105.77367 84.63419 112.80924 84.23786 145.31922 Z" fill="#f5f5d7"/>
          </g>
          <g id="Graphic_20">
            <path d="M 350.53326 174.78295 C 349.49737 204.71464 348.38384 239.09466 347.82664 251.40712 L 347.09624 273.64278 L 332.5626 272.87567 C 324.69547 272.5672 305.89355 271.21216 290.8526 270.09392 C 275.81466 268.80458 253.2458 267.55493 240.93332 266.99773 C 228.44678 266.60864 218.19336 265.7451 218.2053 265.06074 C 218.2501 262.4944 236.45427 258.8759 247.2329 259.06404 C 253.39212 259.17155 268.07893 260.96818 279.85125 263.05622 C 329.8401 271.97244 342.32664 272.36153 343.9889 265.37374 C 344.5589 262.132 348.0983 167.21022 348.86967 132.82423 C 348.98912 125.98066 349.76904 120.51774 350.7956 120.53566 C 351.8221 120.55358 351.8328 139.55047 350.53326 174.78295 Z" fill="#5b380b"/>
          </g>
          <g id="Graphic_19">
            <path d="M 73.41578 196.64393 C 71.05433 273.103 69.14162 265.02595 91.15541 268.6619 C 103.10181 270.58183 106.3555 270.46748 122.49763 267.3264 C 150.8319 261.83103 165.5904 259.52152 173.4605 259.6589 C 182.53123 259.64608 196.67193 263.31574 194.7571 265.16487 C 194.0608 265.8373 179.83648 266.95813 163.39397 267.69798 C 146.95147 268.43782 127.24632 269.80528 119.70346 270.52933 C 112.16059 271.25337 97.42301 272.36526 86.8065 272.69337 L 67.62657 273.38544 L 68.43925 197.41277 C 68.92729 149.84394 69.94824 120.7677 71.00165 119.24581 C 74.68412 114.17584 75.39112 132.50033 73.41578 196.64393 Z" fill="#5b380b"/>
          </g>
          <g id="Graphic_18">
            <path d="M 52.71772 137.2388 C 52.705776 137.92317 49.93848 139.58628 46.666877 140.72716 C 40.64291 142.67571 40.639924 142.8468 40.46373 152.94108 C 40.278573 163.54862 40.94501 164.5871 46.491547 160.57652 C 50.65145 157.56859 52.36533 157.42736 52.311574 160.50697 C 52.26379 163.2444 48.64105 164.89258 42.65292 164.78806 C 39.06004 164.72534 38.561706 163.86094 38.64831 158.89934 C 38.702065 155.81973 38.2754 150.84918 37.8129 147.9317 C 36.869984 143.12328 37.3952 142.44788 43.44007 139.3017 C 50.862615 135.66615 52.75356 135.18573 52.71772 137.2388 Z" fill="#FFD700"/>
          </g>
          <g id="Graphic_17">
            <path d="M 66.31528 142.6104 C 66.21375 148.42744 65.51147 149.44203 60.1629 151.9158 C 52.401165 155.37429 51.887897 155.36533 54.003684 151.80829 C 55.24013 149.60503 54.92782 147.88816 53.08167 145.80224 C 50.902304 143.19707 51.25344 142.68978 57.29831 139.5436 C 66.104506 135.0765 66.446684 135.08247 66.31528 142.6104 Z" fill="#5b380b"/>
          </g>
          <g id="Graphic_16">
            <path d="M 376.5482 145.28727 C 380.10822 147.23197 380.1897 152.36764 376.71717 155.21643 C 374.63423 156.89149 371.55163 157.00882 364.2157 155.68278 C 355.8562 154.16774 354.49943 153.45949 354.0459 150.02874 C 352.98564 142.13772 354.71744 140.96996 364.44863 142.3378 C 369.39828 143.10877 374.85223 144.40196 376.5482 145.28727 Z" fill="#5b380b"/>
          </g>
          <g id="Graphic_15">
            <path d="M 49.93636 149.51245 C 49.40816 150.35894 47.511245 151.18154 45.974426 150.98357 C 43.579174 150.94176 43.756237 150.60257 46.51457 149.45272 C 51.166837 147.65137 51.166837 147.65137 49.93636 149.51245 Z" fill="#FFD700"/>
          </g>
          <g id="Graphic_14">
            <path d="M 52.962304 221.27358 C 52.94737 222.12903 50.702305 223.28783 47.78184 223.92142 C 42.80233 224.86135 42.62228 225.37163 42.469974 234.0972 L 42.30871 243.33602 L 49.65361 244.1488 L 56.82742 244.95858 L 48.78323 244.9893 L 40.564965 245.18814 L 40.729216 235.77822 C 40.818807 230.64554 40.731336 225.85205 40.57518 224.99362 C 40.24793 224.1322 47.664505 220.83882 52.644016 219.8989 C 52.81809 219.7308 52.977236 220.41813 52.962304 221.27358 Z" fill="#FFD700"/>
          </g>
          <g id="Graphic_13">
            <path d="M 66.503126 229.89587 C 66.39562 236.0551 65.87339 236.5594 60.0235 238.33985 C 52.62783 240.4356 51.778356 240.07849 54.257226 235.3298 C 55.493675 233.12653 55.69164 231.58971 54.50596 230.88445 C 51.798394 229.12578 52.55144 225.20266 55.98816 224.40694 C 64.92662 222.16698 66.62258 223.0523 66.503126 229.89587 Z" fill="#5b380b"/>
          </g>
          <g id="Graphic_12">
            <path d="M 377.55864 234.46966 C 378.13847 240.46973 373.13507 242.77838 361.17075 241.88498 L 351.4276 241.20148 L 351.69725 235.55852 C 351.9191 232.653 352.14097 229.74745 352.14396 229.57636 C 352.321 229.23717 357.96996 229.16463 364.81055 229.45518 C 376.60676 230.1745 377.11704 230.35455 377.55864 234.46966 Z" fill="#5b380b"/>
          </g>
          <g id="Graphic_11">
            <path d="M 51.53174 234.59765 C 50.32814 234.91892 48.27507 234.8831 47.254505 234.523 C 46.06584 233.98882 46.92726 233.66157 49.32251 233.70338 C 51.71776 233.7452 52.567236 234.1023 51.53174 234.59765 Z" fill="#FFD700"/>
          </g>
          <g id="Graphic_10">
            <path d="M 169.73064 238.02995 C 175.34972 239.6683 184.35176 243.59055 189.94395 246.7687 C 198.2467 251.53446 200.77123 253.9745 203.23604 259.83634 C 205.69487 266.04036 205.67994 266.8958 203.45578 266.85698 C 201.91597 266.8301 199.5476 265.2485 198.04064 263.33963 C 191.67662 255.35603 165.49695 255.0702 136.10328 262.42965 C 119.60105 266.5913 90.99925 267.80345 82.32446 264.74263 C 78.92059 263.65636 76.21004 262.06878 76.56118 261.56148 C 76.9153 260.8831 78.32881 258.34065 79.57422 255.62412 C 81.87304 251.3857 82.73446 251.05846 88.18842 252.35165 C 98.75714 254.76097 106.99332 253.5356 119.76742 247.2552 C 133.92218 240.31432 149.07063 235.27335 155.40094 235.38384 C 157.79918 235.25456 164.27967 236.56567 169.73064 238.02995 Z" fill="#f5f5d7"/>
          </g>
          <g id="Graphic_9">
            <path d="M 295.20576 246.21008 C 310.3282 252.464 314.24533 253.55922 323.66122 253.3813 C 334.10365 253.2213 334.78502 253.40432 339.14077 258.78574 C 342.8241 263.47085 343.3135 264.84853 341.2395 266.01032 C 337.60183 268.51395 307.18375 265.9293 286.7247 261.4648 C 255.86502 254.76503 214.93283 256.44654 214.7895 264.65883 C 214.7656 266.02755 213.55005 267.03318 212.18134 267.0093 C 210.12826 266.97345 209.96912 266.2861 211.9198 262.3839 C 214.23056 257.46113 223.28549 248.54868 226.0259 248.42538 C 227.05244 248.4433 229.30348 246.9423 231.3894 245.09616 C 236.95386 240.05905 252.07244 236.72897 265.74466 237.82333 C 274.63235 238.4919 282.12445 240.67636 295.20576 246.21008 Z" fill="#f5f5d7"/>
          </g>
          <g id="Graphic_8">
            <path d="M 216.39586 270.67683 C 216.38093 271.53227 212.9472 272.1569 208.66996 272.08224 C 198.57568 271.90605 198.62048 269.3397 208.71774 269.3448 C 212.99796 269.24838 216.4108 269.82138 216.39586 270.67683 Z" fill="#5b380b"/>
          </g>
          <g id="Graphic_7">
            <path d="M 362.26117 150.001 C 362.24624 150.85644 363.0957 151.21355 363.9601 150.71522 C 364.9956 150.21987 365.6949 149.37637 365.70386 148.8631 C 365.70983 148.52092 365.03145 148.1668 364.0049 148.14888 C 363.14947 148.13394 362.2791 148.97446 362.26117 150.001 Z" fill="black"/>
          </g>
          <g id="Graphic_6">
            <path d="M 369.0928 150.8048 C 369.06592 152.34461 369.90345 153.38608 370.93596 153.06182 C 371.96847 152.73756 372.84184 151.72596 372.85677 150.8705 C 372.8717 150.01506 372.03417 148.9736 371.0136 148.6135 C 369.99304 148.2534 369.11968 149.265 369.0928 150.8048 Z" fill="black"/>
          </g>
          <g id="Graphic_5">
            <path d="M 368.467 235.6801 C 366.7113 238.21657 368.9056 239.9663 371.1686 237.78095 C 372.38713 236.60423 372.40505 235.5777 371.39046 234.87542 C 370.3729 234.34423 368.9982 234.66252 368.467 235.6801 Z" fill="black"/>
          </g>
          <g id="Graphic_4">
            <path d="M 360.7411 237.0855 C 360.72617 237.94096 361.5667 238.81134 362.42213 238.82627 C 363.44867 238.8442 364.14796 238.0007 364.1629 237.14524 C 364.1808 236.1187 363.5084 235.4224 362.48186 235.40448 C 361.6264 235.38955 360.759 236.05898 360.7411 237.0855 Z" fill="black"/>
          </g>
        </g>
      </g>
    </g>
  </defs>
  <g clip-path="url(#shield_895123640)">
    <rect class="field" x="0" y="0" width="200" height="200" fill="#1b68be"/>
    <g class="ordinary" i="0" fill="#db8d1f" stroke="none" stroke-width="1">
      <rect x="0" y="145" width="200" height="55"/>
    </g>
    <g class="ordinary" i="1" transform="translate(12 -31) rotate(180 88 88) scale(0.88)" fill="#ffe066" stroke="none" stroke-width="1">
      <path d="M15,0 100,200 60,0Z M80,0 100,200 120,0Z M140,0 100,200 185,0Z"/>
    </g>
    <g class="charge" i="0" charge="castle" fill="#db8d1f" transform="translate(0 -30)" stroke="#000">
      <use xlink:href="#castle" transform="translate(-30 20) scale(1.3)"/>
    </g>
    <g class="charge" i="1" charge="livreOuvert" fill="#fafafa" transform="translate(1 0)" stroke="#000">
      <use xlink:href="#livreOuvert" transform="translate(50 0) scale(0.5)"/>
    </g>
  </g>
  <path class="grad" d="m 25,25 v 125 l 75,50 75,-50 V 25 Z" fill="url(#luster)" stroke="#333333" stroke-width="1" style="pointer-events: none;"/>
</svg>