<svg width="1536" height="1500" viewBox="0 5 200 200" xmlns="http://www.w3.org/2000/svg" xmlns:xlink="http://www.w3.org/1999/xlink" xmlns:dc="http://purl.org/dc/elements/1.1/" xmlns:rdf="http://www.w3.org/1999/02/22-rdf-syntax-ns#"><defs><clipPath id="shield_671665058"><path d="M 25,33.9 C 33.4,50.3 36.2,72.9 36.2,81.7 36.2,109.9 25,122.6 25,141 c 0,29.4 24.9,44.1 40.2,47.7 15.3,3.7 29.3,0 34.8,11.3 5.5,-11.3 19.6,-7.6 34.8,-11.3 C 150.1,185 175,170.3 175,141 c 0,-18.4 -11.2,-31.1 -11.2,-59.3 0,-8.8 2.8,-31.3 11.2,-47.7 L 155.7,14.4 C 138.2,21.8 119.3,25.7 100,25.7 c -19.3,0 -38.2,-3.9 -55.7,-11.3 z"/></clipPath><radialGradient id="spotlight" cx="35%" cy="35%" r="100%">
            <stop stop-color="#fff" stop-opacity=".3" offset="0"/>
            <stop stop-color="#fff" stop-opacity=".15" offset=".2"/>
            <stop stop-color="#000" stop-opacity="0" offset=".7"/>
          </radialGradient><g id="sun" author="Azgaar" license="https://creativecommons.org/publicdomain/zero/1.0">
    <path stroke-width=".5" d="M84.7 63c-1 3.9.1 7.1 2 10.1 1.5 2.3 2.4 4.8 2.4 7.5-.7.4-1.3.8-1.9 1.2L71.8 71.7l10.4 15.2c-.2.3-.4.5-.5.8-2.9-1.3-5.7-1.6-8.3-1.1-3.7.7-6.9-.1-10.2-2 2.1 3.5 5.1 5 8.6 5.7 2.7.6 5.1 1.7 7 3.6-.2.7-.4 1.5-.5 2.2l-18.1 3.7 18.1 3.5c0 .3.1.6.2.9-3 1.1-5.2 2.9-6.6 5.1-2.1 3.1-4.9 4.8-8.6 5.8 3.9 1 7.1-.1 10.1-2 2.3-1.5 4.8-2.4 7.5-2.4.4.7.8 1.3 1.2 1.9l-10.3 15.5 15.3-10.4c.3.2.5.4.8.5-1.3 2.9-1.6 5.7-1.1 8.3.7 3.7-.1 6.8-2 10.1 3.5-2.1 5-5.1 5.7-8.6.6-2.7 1.7-5.1 3.6-7 .7.2 1.5.4 2.2.5l3.7 18.1 3.5-18.1c.3 0 .6-.1.9-.2 1.1 3 2.9 5.2 5.1 6.6 3.1 2.1 4.8 4.9 5.8 8.6 1-3.9-.1-7.1-2-10.1-1.5-2.3-2.4-4.8-2.4-7.5.7-.4 1.3-.8 1.9-1.2l15.4 10.2-10.4-15.3c.2-.3.4-.5.5-.8 2.9 1.3 5.7 1.6 8.3 1.1 3.7-.7 6.8.1 10.1 2-2.1-3.5-5.1-4.9-8.6-5.7-2.7-.6-5.1-1.7-7-3.6.2-.7.4-1.5.5-2.2l18.1-3.7-18.1-3.5c0-.3-.1-.6-.2-.9 3-1.1 5.2-2.9 6.6-5.1 2.1-3.1 4.9-4.8 8.6-5.7-3.9-1-7.1.1-10.1 2-2.3 1.5-4.8 2.4-7.5 2.4-.4-.7-.8-1.3-1.2-1.9L128 71.6l-15.3 10.3c-.3-.2-.5-.4-.8-.5 1.3-2.9 1.6-5.7 1.1-8.3-.7-3.7.1-6.9 2-10.2-3.5 2.1-4.9 5.1-5.7 8.6-.6 2.7-1.7 5.2-3.7 7-.7-.2-1.5-.4-2.2-.5L100 60l-3.5 18.1c-.3 0-.6.1-.9.2-1.1-3-2.9-5.2-5.1-6.6-3.1-2.1-4.8-4.9-5.7-8.6z"/>
  </g><g id="inescutcheonVesicaPiscis" author="Azgaar" license="https://creativecommons.org/publicdomain/zero/1.0"><path transform="translate(67 67) scale(.33)" d="M 100,0 C 63.9,20.4 41,58.5 41,100 c 0,41.5 22.9,79.6 59,100 36.1,-20.4 59,-58.5 59,-100 C 159,58.5 136.1,20.4 100,0 Z"/></g><g id="inescutcheonRound" author="Azgaar" license="https://creativecommons.org/publicdomain/zero/1.0"><path transform="translate(67 67) scale(.33)" d="m 185,100 a 85,85 0 0 1 -85,85 85,85 0 0 1 -85,-85 85,85 0 0 1 85,-85 85,85 0 0 1 85,85"/></g></defs> <g clip-path="url(#shield_671665058)"><rect class="field" x="0" y="0" width="200" height="200" fill="#522d5b"/><g class="ordinary" i="0" fill="#377cd7" stroke="none" stroke-width="1"><path d="m 200,115 v -15 c -8.9,3.5 -16,3.1 -25,0 -8.9,-3.5 -16,-3.1 -25,0 -8.9,3.5 -16,3.2 -25,0 -8.9,-3.5 -16,-3.2 -25,0 -8.9,3.5 -16,3.1 -25,0 -8.9,-3.5 -16,-3.1 -25,0 -8.9,3.5 -16,3.2 -25,0 -8.9,-3.5 -16,-3.2 -25,0 v 15 z" transform="translate(0 -14.5)"/><path d="m 200,115 v -15 c -8.9,3.5 -16,3.1 -25,0 -8.9,-3.5 -16,-3.1 -25,0 -8.9,3.5 -16,3.2 -25,0 -8.9,-3.5 -16,-3.2 -25,0 -8.9,3.5 -16,3.1 -25,0 -8.9,-3.5 -16,-3.1 -25,0 -8.9,3.5 -16,3.2 -25,0 -8.9,-3.5 -16,-3.2 -25,0 v 15 z" transform="rotate(180 100 100) translate(0 -14.5)"/><path d="m 200,115 v -15 c -8.9,3.5 -16,3.1 -25,0 -8.9,-3.5 -16,-3.1 -25,0 -8.9,3.5 -16,3.2 -25,0 -8.9,-3.5 -16,-3.2 -25,0 -8.9,3.5 -16,3.1 -25,0 -8.9,-3.5 -16,-3.1 -25,0 -8.9,3.5 -16,3.2 -25,0 -8.9,-3.5 -16,-3.2 -25,0 v 15 z" transform="rotate(-90 100 100) translate(0 -14.5)"/><path d="m 200,115 v -15 c -8.9,3.5 -16,3.1 -25,0 -8.9,-3.5 -16,-3.1 -25,0 -8.9,3.5 -16,3.2 -25,0 -8.9,-3.5 -16,-3.2 -25,0 -8.9,3.5 -16,3.1 -25,0 -8.9,-3.5 -16,-3.1 -25,0 -8.9,3.5 -16,3.2 -25,0 -8.9,-3.5 -16,-3.2 -25,0 v 15 z" transform="rotate(-270 100 100) translate(0 -14.5)"/></g><g class="ordinary" i="1" fill="#377cd7" stroke="none" stroke-width="1"><path d="m 0,85 c 0,0 60,20.2 100,20 40,-0.2 100,-20 100,-20 v 30 H 0 Z" transform="translate(0 -10) rotate(45 110 100) scale(1.1 1)"/><path d="m 0,85 c 0,0 60,20.2 100,20 40,-0.2 100,-20 100,-20 v 30 H 0 Z" transform="translate(-20 10) rotate(225 110 100) scale(1.1 1)"/><path d="m 0,85 c 0,0 60,20.2 100,20 40,-0.2 100,-20 100,-20 v 30 H 0 Z" transform="translate(-20 -10) rotate(-45 110 100) scale(1.1 1)"/><path d="m 0,85 c 0,0 60,20.2 100,20 40,-0.2 100,-20 100,-20 v 30 H 0 Z" transform="translate(0 10) rotate(-225 110 100) scale(1.1 1)"/></g><g class="charge" i="0" charge="sun" fill="#ebbe5a" stroke="#000"><use xlink:href="#sun" xmlns:xlink="http://www.w3.org/1999/xlink" transform="translate(-50 -50) scale(1.5)"/></g><g class="charge" i="1" charge="inescutcheonVesicaPiscis" fill="#fafafa" transform="rotate(90 100 100)" stroke="#000"><use xlink:href="#inescutcheonVesicaPiscis" xmlns:xlink="http://www.w3.org/1999/xlink" transform="translate(20 20) scale(0.8)"/></g><g class="charge" i="2" charge="inescutcheonRound" fill="#377cd7" transform="rotate(90 100 100)" stroke="#000"><use xlink:href="#inescutcheonRound" xmlns:xlink="http://www.w3.org/1999/xlink" transform="translate(50 50) scale(0.5)"/></g><g class="charge" i="3" charge="inescutcheonRound" fill="#333333" transform="rotate(90 100 100)" stroke="#000"><use xlink:href="#inescutcheonRound" xmlns:xlink="http://www.w3.org/1999/xlink" transform="translate(70 70) scale(0.3)"/></g></g> <path class="grad" d="M 25,33.9 C 33.4,50.3 36.2,72.9 36.2,81.7 36.2,109.9 25,122.6 25,141 c 0,29.4 24.9,44.1 40.2,47.7 15.3,3.7 29.3,0 34.8,11.3 5.5,-11.3 19.6,-7.6 34.8,-11.3 C 150.1,185 175,170.3 175,141 c 0,-18.4 -11.2,-31.1 -11.2,-59.3 0,-8.8 2.8,-31.3 11.2,-47.7 L 155.7,14.4 C 138.2,21.8 119.3,25.7 100,25.7 c -19.3,0 -38.2,-3.9 -55.7,-11.3 z" fill="url(#spotlight)" stroke="#333333" stroke-width="1" style="pointer-events: none;"/></svg>